<svg id="Capa_1" enable-background="new 0 0 512 512" height="40" viewBox="0 0 512 512" width="40" xmlns="http://www.w3.org/2000/svg"><g><g><path d="m142.685 410.129v94.371h50.439l62.876-47.186 62.876 47.186h50.439v-94.371z" fill="#9bd981"/><path d="m369.315 444.923v-34.794h-226.63v34.794c27.618 14.389 60.46 22.782 96.902 24.709l16.413-12.318 16.413 12.317c36.441-1.926 69.283-10.319 96.902-24.708z" fill="#8cd370"/><path d="m193.124 410.129h125.752v94.371h-125.752z" fill="#fbe5c8"/><path d="m138.999 162.338s-41.265-33.859-99.241-27.33c-10.729 1.208-17.431 12.286-13.58 22.373 9.116 23.877 19.569 67.214-4.613 104.033-3.761 5.726-3.521 13.153.487 18.709 9.204 12.759 21.678 38.09 8.096 70.322-3.841 9.116 1.109 19.537 10.592 22.355 14.832 4.408 37.944 8.245 67.03 3.297z" fill="#ff889e"/><path d="m373.001 162.338s41.265-33.859 99.241-27.33c10.729 1.208 17.431 12.286 13.58 22.373-9.116 23.877-19.569 67.214 4.613 104.033 3.761 5.726 3.521 13.153-.487 18.709-9.204 12.759-21.678 38.09-8.096 70.322 3.841 9.116-1.109 19.537-10.592 22.355-14.832 4.408-37.944 8.245-67.03 3.297z" fill="#ff889e"/><path d="m193.124 463.239c19.547 4.516 40.617 6.828 62.876 6.828s43.329-2.312 62.876-6.828v-53.11h-125.752z" fill="#fbdab2"/><path d="m477.076 334.752c-39.642-43.725-62.845-96.76-62.845-160.635 0-11.568 1.023-22.897 2.979-33.903-27.331 8.276-44.209 22.124-44.209 22.124l31.228 213.758c29.086 4.949 52.198 1.112 67.03-3.297 9.483-2.818 14.433-13.239 10.592-22.355-2.291-5.438-3.826-10.674-4.775-15.692z" fill="#ff748f"/><path d="m400.72 209.848c-6.384-10.269-12.162-20.894-17.843-31.568-24.145-45.365-71.901-76.253-126.878-76.253s-102.732 30.887-126.878 76.253c-5.681 10.673-11.459 21.299-17.843 31.568-16.203 26.062-25.564 56.82-25.564 89.767 0 94.045 76.239 140.453 170.284 140.453s170.284-46.407 170.284-140.453c.002-32.947-9.359-63.705-25.562-89.767z" fill="#9bd981"/><path d="m54.825 224.158c0-32.269 9.576-62.296 26.029-87.413-12.308-2.415-26.144-3.421-41.096-1.737-10.729 1.208-17.431 12.286-13.58 22.373 9.116 23.877 19.569 67.213-4.613 104.033-3.761 5.726-3.521 13.153.487 18.709 9.204 12.759 21.678 38.09 8.096 70.322-3.841 9.116 1.109 19.537 10.592 22.355 14.832 4.408 37.944 8.245 67.03 3.297l4.298-29.42c-34.987-29.305-57.243-73.31-57.243-122.519z" fill="#ff748f"/><path d="m134.235 296.211c0-64.042 31.875-139.47 80.618-188.183-37.073 11.068-67.867 36.689-85.731 70.252-5.681 10.673-11.459 21.299-17.843 31.567-16.203 26.063-25.564 56.82-25.564 89.767 0 71.302 43.829 115.212 106.009 132.284-35.447-34.339-57.489-82.435-57.489-135.687z" fill="#8cd370"/><g><path d="m201.633 181.318c-12.357 0-22.374-10.017-22.374-22.374 0-12.373-5.899-17.141-29.342-29.532-14.396-7.608-30.712-16.233-44.034-31.136-15.933-17.827-23.679-40.201-23.679-68.402 0-12.357 10.017-22.374 22.374-22.374s22.374 10.017 22.374 22.374c0 36.787 18.404 46.515 43.876 59.977 2.8 1.48 5.623 2.972 8.432 4.517v-37.52c0-12.357 10.017-22.374 22.374-22.374s22.374 10.017 22.374 22.374v102.097c-.001 12.356-10.018 22.373-22.375 22.373z" fill="#fbe5c8"/></g><g><path d="m310.367 181.318c12.357 0 22.374-10.017 22.374-22.374 0-12.373 5.899-17.141 29.342-29.532 14.396-7.608 30.712-16.233 44.034-31.136 15.934-17.827 23.68-40.202 23.68-68.402 0-12.357-10.017-22.374-22.374-22.374s-22.374 10.017-22.374 22.374c0 36.787-18.404 46.515-43.876 59.977-2.8 1.48-5.623 2.972-8.432 4.517v-37.52c0-12.357-10.017-22.374-22.374-22.374s-22.374 10.017-22.374 22.374v102.097c0 12.356 10.017 22.373 22.374 22.373z" fill="#fbe5c8"/></g><g><path d="m183.797 264.125c-19.768-15.853-43.612-22.5-67.234-20.67-15.057 1.159-28.209-10.096-29.374-25.154-1.166-15.057 10.096-28.209 25.154-29.374 38.892-3.008 76.642 9.251 105.672 32.533 11.782 9.449 13.673 26.66 4.224 38.442-9.404 11.724-26.604 13.717-38.442 4.223z" fill="#bae4a7"/></g><g><path d="m38.617 455.527c-10.984 0-19.888-8.904-19.888-19.888s8.904-19.888 19.888-19.888c25.499 0 24.252-12.885 37.427-35.66 11.351-19.622 26.897-46.495 62.955-46.495 10.984 0 19.888 8.904 19.888 19.888s-8.904 19.888-19.888 19.888c-12.041 0-17.11 6.904-28.525 26.636-13.554 23.43-22.174 55.519-71.857 55.519z" fill="#bae4a7"/></g><ellipse cx="203.816" cy="342.114" fill="#423e4f" rx="20.41" ry="24.73" transform="matrix(.707 -.707 .707 .707 -182.215 244.323)"/><g><path d="m328.203 264.125c19.768-15.853 43.612-22.5 67.234-20.67 15.057 1.159 28.209-10.096 29.374-25.154 1.166-15.057-10.096-28.209-25.154-29.374-38.892-3.008-76.642 9.251-105.672 32.533-11.782 9.449-13.673 26.66-4.224 38.442 9.404 11.724 26.604 13.717 38.442 4.223z" fill="#bae4a7"/></g><g><path d="m473.383 455.527c10.984 0 19.888-8.904 19.888-19.888s-8.904-19.888-19.888-19.888c-25.499 0-24.252-12.885-37.427-35.66-11.351-19.622-26.897-46.495-62.955-46.495-10.984 0-19.888 8.904-19.888 19.888s8.904 19.888 19.888 19.888c12.041 0 17.11 6.904 28.525 26.636 13.554 23.43 22.174 55.519 71.857 55.519z" fill="#bae4a7"/></g><ellipse cx="308.184" cy="342.114" fill="#423e4f" rx="24.73" ry="20.41" transform="matrix(.707 -.707 .707 .707 -151.646 318.122)"/><path d="m123.613 88.957c0-13.485 2.032-26.495 5.799-38.745-1.6-5.728-2.461-12.4-2.461-20.338 0-12.357-10.017-22.374-22.374-22.374s-22.374 10.017-22.374 22.374c0 28.201 7.746 50.575 23.68 68.402 6.325 7.076 13.326 12.725 20.475 17.533-1.797-8.669-2.745-17.649-2.745-26.852z" fill="#fbdab2"/></g><g><path d="m223.551 322.379c-12.566-12.566-31.643-13.937-42.525-3.054-10.882 10.882-9.512 29.959 3.055 42.525 12.08 12.081 31.252 14.327 42.525 3.054 10.882-10.883 9.512-29.959-3.055-42.525zm-7.552 31.918c-4.949 4.949-14.709 3.55-21.312-3.054-6.604-6.604-8.003-16.363-3.055-21.312 5.429-5.428 15.39-2.867 21.312 3.055 6.605 6.604 8.004 16.363 3.055 21.311z"/><path d="m327.919 361.849c11.975-11.975 14.539-31.041 3.054-42.525-11.56-11.56-30.638-8.833-42.524 3.054-11.974 11.974-14.541 31.04-3.055 42.525 11.337 11.338 30.501 8.97 42.525-3.054zm-28.864-28.863c5.809-5.809 15.763-8.604 21.312-3.055 5.496 5.496 2.85 15.407-3.054 21.312-6.604 6.604-16.364 8.003-21.312 3.054-5.496-5.495-2.849-15.408 3.054-21.311z"/><path d="m179.155 302.02v-16.208c0-4.142-3.358-7.5-7.5-7.5s-7.5 3.358-7.5 7.5v16.208c0 4.142 3.358 7.5 7.5 7.5s7.5-3.358 7.5-7.5z"/><path d="m340.345 309.52c4.142 0 7.5-3.358 7.5-7.5v-16.208c0-4.142-3.358-7.5-7.5-7.5s-7.5 3.358-7.5 7.5v16.208c0 4.142 3.358 7.5 7.5 7.5z"/><path d="m233.974 381.875c5.556 6.375 13.584 10.031 22.026 10.031s16.47-3.656 22.026-10.031c2.721-3.123 2.396-7.86-.727-10.582s-7.861-2.397-10.582.726c-2.706 3.105-6.612 4.886-10.718 4.886s-8.012-1.781-10.718-4.886c-2.722-3.123-7.459-3.448-10.582-.726-3.121 2.722-3.447 7.459-.725 10.582z"/><path d="m38.617 408.251c-15.102 0-27.388 12.286-27.388 27.388s12.286 27.388 27.388 27.388c47.247 0 61.502-27.32 72.957-49.272 3.27-6.268 4.235-8.057 7.234-13.146 5.049 4.847 10.511 9.352 16.378 13.486v90.405c0 4.142 3.358 7.5 7.5 7.5h226.63c4.142 0 7.5-3.358 7.5-7.5v-90.405c5.866-4.134 11.329-8.638 16.377-13.486 7.276 12.345 11.387 22.378 18.475 32.574 2.365 3.401 7.037 4.241 10.439 1.877 3.401-2.365 4.241-7.038 1.877-10.439-6.143-8.837-10.603-19.101-15.966-28.369-9.858-17.041-17.156-30.381-35.017-30.381-6.831 0-12.388-5.557-12.388-12.388s5.557-12.388 12.388-12.388c15.052 0 26.046 5.338 34.625 12.979 11.601 10.398 22.013 29.157 28.786 43.192 7.005 14.517 12.538 25.984 36.972 25.984 6.831 0 12.388 5.557 12.388 12.388s-5.557 12.388-12.388 12.388c-11.922 0-21.671-1.93-29.806-5.9-3.724-1.818-8.213-.272-10.03 3.451-1.816 3.722-.271 8.213 3.451 10.03 10.23 4.992 22.132 7.419 36.385 7.419 15.102 0 27.388-12.286 27.388-27.388s-12.286-27.388-27.388-27.388c-15.017 0-16.975-4.058-23.462-17.503-.859-1.781-1.772-3.668-2.769-5.653 9.075-.921 17.868-2.617 26.245-5.107 13.767-4.092 20.934-19.243 15.367-32.457-12.255-29.083-.708-51.969 7.267-63.022 5.806-8.049 6.077-18.985.674-27.214-22.56-34.35-12.111-75.668-3.875-97.24 5.604-14.68-4.15-30.744-19.748-32.501-47.732-5.376-84.349 14.908-98.511 24.393-3.885-4.906-8.073-9.578-12.565-13.99 16.117-8.698 34.216-17.357 49.703-34.683 17.218-19.264 25.587-43.273 25.587-73.4-.001-16.472-13.403-29.873-29.875-29.873-16.473 0-29.874 13.401-29.874 29.874 0 31.127-13.97 39.611-37.308 51.985v-25.012c0-16.473-13.401-29.874-29.874-29.874s-29.874 13.401-29.874 29.874v39.688c-16.19-2.639-32.797-2.639-48.986 0v-39.688c0-16.473-13.401-29.874-29.874-29.874s-29.874 13.401-29.874 29.874v25.012c-23.327-12.368-37.308-20.847-37.308-51.986.002-16.472-13.4-29.873-29.872-29.873-16.473 0-29.874 13.401-29.874 29.874 0 23.887 5.23 43.739 15.99 60.692 2.22 3.497 6.854 4.532 10.352 2.313 3.497-2.219 4.533-6.854 2.313-10.351-9.188-14.477-13.655-31.7-13.655-52.654 0-8.202 6.672-14.874 14.874-14.874s14.874 6.672 14.874 14.874c0 41.306 22.184 53.031 47.871 66.608 2.736 1.446 5.564 2.942 8.324 4.459 4.991 2.742 11.113-.874 11.113-6.573v-37.521c0-8.202 6.672-14.874 14.874-14.874 8.201 0 14.874 6.672 14.874 14.874v102.097c0 8.202-6.672 14.874-14.874 14.874s-14.874-6.672-14.874-14.874c0-2.073-.199-4.473-.612-6.531-4.423-22.471-37.539-27.34-64.325-49.284-3.205-2.625-7.93-2.155-10.555 1.049-2.625 3.205-2.155 7.93 1.049 10.555 12.531 10.265 25.207 16.495 37.679 23.224-4.491 4.413-8.679 9.084-12.565 13.991-14.163-9.485-50.782-29.77-98.511-24.393-7.421.836-13.912 4.984-17.808 11.382-3.907 6.417-4.614 14.114-1.94 21.119 8.236 21.572 18.684 62.891-3.875 97.24-5.404 8.229-5.132 19.165.674 27.214 7.974 11.053 19.521 33.939 7.267 63.022-5.578 13.238 1.624 28.372 15.367 32.457 8.376 2.49 17.17 4.186 26.245 5.107-.996 1.984-1.909 3.872-2.769 5.652-6.49 13.445-8.448 17.503-23.464 17.503zm111.568 15.154c10.832 5.914 22.693 10.789 35.439 14.574v59.021h-35.439zm50.439 73.595v-55.16c18.081 3.97 37.013 5.728 55.376 5.728 18.486 0 37.392-1.779 55.376-5.728v55.16zm161.191 0h-35.439v-59.021c12.746-3.785 24.607-8.659 35.439-14.574zm34.201-261.022c-26.253-2.042-52.028 5.874-72.506 22.296-8.568 6.872-21.077 5.44-27.898-3.065-6.891-8.592-5.415-21.102 3.065-27.898 25.238-20.238 57.056-31.362 89.679-31.328 3.327.008 10.705.154 13.999.97 8.764 2.172 14.853 9.948 15.034 18.797.245 11.877-9.903 21.164-21.373 20.228zm-12.714-71.793c12.628-8.32 45.735-26.497 88.1-21.725 5.849.659 9.52 6.725 7.413 12.245-9.258 24.25-20.874 70.895 5.351 110.825 2.044 3.112 1.926 7.117-.301 10.203-9.815 13.606-24.027 41.783-8.925 77.623 2.112 5.012-.614 10.707-5.817 12.254-9.445 2.807-19.507 4.514-29.968 5.087-4.18-7.002-8.479-13.656-13.78-19.849 5.883-16.527 8.409-33.967 8.409-51.233 0-20.961-3.69-41.303-10.422-60.035 5.932-6.562 9.21-15.154 9.026-24.163-.24-11.748-6.47-22.694-16.613-28.933-7.616-4.685-14.097-5.157-22.881-5.432-.061-.112-2.949-5.437-3.396-6.296v.001c-1.919-3.607-4.302-7.637-6.196-10.572zm-72.935-122.212c8.202 0 14.874 6.672 14.874 14.874v37.52c0 5.694 6.118 9.32 11.113 6.572 28.835-15.853 56.194-25.197 56.194-71.065 0-8.202 6.672-14.874 14.874-14.874 8.201 0 14.874 6.672 14.874 14.874 0 26.273-7.122 47.014-21.771 63.404-27.439 30.696-69.642 33.582-74.672 59.135-.756 3.766-.519 6.376-.689 8.05-.763 7.491-7.108 13.355-14.797 13.355-8.151 0-14.874-6.623-14.874-14.874 0-4.194 0-98.692 0-102.097 0-8.201 6.672-14.874 14.874-14.874zm-146.929 103.886c7.802 5.318 8.321 8.226 8.321 13.085 0 16.473 13.401 29.874 29.874 29.874 16.472 0 29.874-13.401 29.874-29.874v-47.2c16.161-2.943 32.823-2.944 48.986 0v47.201c0 16.422 13.362 29.874 29.874 29.874 15.958 0 29.033-12.577 29.835-28.339.097-1.903-.071-3.693.386-5.589.926-3.873 4.605-6.734 7.974-9.031 11.266 10.439 20.516 22.551 27.484 35.563-52.845 3.944-84.468 32.848-86.752 34.187-14.882 11.932-17.471 33.911-5.382 48.985.009.012.019.022.028.033 12.072 15.017 34.039 17.306 48.956 5.349 16.703-13.396 37.454-20.529 62.014-19.041 5.068.386 10.583-.371 15.659-2.422 5.445 16.443 8.215 33.69 8.215 51.101 0 13.191-1.621 26.698-5.448 39.711-12.084-9.246-25.655-13.23-40.336-13.23-15.102 0-27.388 12.286-27.388 27.388 0 13.682 10.248 26.96 28.086 27.397 5.114.131 7.774 2.404 11.195 6.871-32.627 32.911-82.545 44.815-128.894 44.815-46.341 0-96.257-11.894-128.894-44.815 4.662-6.09 7.571-6.88 11.893-6.88 15.117 0 27.388-12.302 27.388-27.388 0-15.102-12.286-27.388-27.388-27.388-15.735 0-29.048 4.588-40.336 13.23-3.801-12.968-5.447-26.41-5.447-39.711 0-17.313 2.722-34.52 8.215-51.101 6.816 2.759 11.832 2.608 18.089 2.292 7.621-.388 15.173.176 22.494 1.692 13.305 2.755 25.756 8.488 37.133 17.512 16.38 13.1 40.582 8.812 51.503-9.08 8.992-14.726 5.866-34.245-7.943-45.32-.018-.014-.036-.027-.053-.041-24.729-19.82-54.832-31.767-86.699-34.146 7.024-13.108 16.302-25.201 27.484-35.564zm-39.795 50.124c32.288-.094 64.175 10.881 89.678 31.328 7.032 5.639 9.191 15.12 5.913 23.06-5.081 12.308-20.518 16.107-30.745 7.904-1.317-.693-28.797-25.677-72.501-22.297-.001 0-.002 0-.004 0-10.987.845-20.481-7.453-21.318-18.255-.641-8.254 3.874-15.721 10.795-19.235 4.402-2.236 9.147-2.484 18.182-2.505zm-86.583 157.373c15.102-35.84.891-64.016-8.925-77.623-2.227-3.086-2.345-7.091-.301-10.203 26.225-39.931 14.609-86.575 5.351-110.825-1.007-2.639-.738-5.542.738-7.967 1.465-2.406 3.897-3.965 6.674-4.278 42.178-4.749 75.415 13.435 88.09 21.742-3.539 5.435-6.257 10.708-9.582 16.851-2.443.077-4.891.208-7.342.397-19.319 1.494-33.527 18.345-32.053 37.431.614 7.951 3.953 15.208 8.927 20.699-6.987 19.443-10.422 39.773-10.422 60.035 0 17.389 2.556 34.787 8.409 51.233-6.592 7.701-10.952 15.304-13.78 19.849-10.46-.573-20.522-2.28-29.968-5.087-5.213-1.55-7.924-7.252-5.816-12.254zm38.529 43.91c3.957-8.201 5.261-10.514 7.941-15.136 13.901-23.968 27.541-41.034 55.469-41.034 6.831 0 12.388 5.557 12.388 12.388s-5.557 12.388-12.388 12.388c-17.749 0-24.857 12.818-35.018 30.381-1.986 3.434-3.877 7.058-5.707 10.563-11.058 21.193-21.503 41.211-59.658 41.211-6.831 0-12.388-5.557-12.388-12.388s5.557-12.388 12.388-12.388c24.434 0 29.967-11.467 36.973-25.985z"/></g></g></svg>