<?xml version="1.0" encoding="iso-8859-1"?>
<!-- Generator: Adobe Illustrator 19.0.0, SVG Export Plug-In . SVG Version: 6.00 Build 0)  -->
<svg version="1.1" id="Capa_1" xmlns="http://www.w3.org/2000/svg" xmlns:xlink="http://www.w3.org/1999/xlink" x="0px" y="0px"
	 viewBox="0 0 512 512" style="enable-background:new 0 0 512 512;" xml:space="preserve">
<path style="fill:#E68783;" d="M79.898,169.281l-27.83-8.739c-20.541-9.745-26.034-27.822-26.034-52.068h38.131
	c14.952,0.885,29.115,7.038,39.971,17.356l17.356,17.356l-17.356,26.034L79.898,169.281z"/>
<path style="fill:#F5A9A2;" d="M493.637,279.561c6.283-20.176,9.546-41.16,9.685-62.29v-4.66
	c0-62.308-50.506-112.814-112.814-112.814H189.7c-46.956,0-89.704,27.049-109.802,69.484l-30.373,64.026
	C40.465,252.451,21.183,264.669,0,264.678v43.39l111.078,15.863c5.979,0.859,10.414,5.988,10.414,12.028v76.245h34.712l14.241-71.22
	c1.336-6.578,7.758-10.821,14.327-9.476c0.859,0.174,1.701,0.443,2.508,0.798c28.507,12.514,59.279,19.031,90.416,19.152
	c86.78,0,121.492-34.712,121.492-34.712l2.76-2.76c1.9,1.319,3.931,2.603,6.075,3.844c13.295,7.307,25.548,16.349,36.447,26.902
	l6.786,6.725l-27.318,47.807c-2.352,4.174-0.876,9.468,3.298,11.819c1.284,0.729,2.742,1.111,4.217,1.119h28.481l43.39-60.746
	c-11.628-18.232-16.011-40.162-12.297-61.466C491.685,286.468,492.553,282.98,493.637,279.561z"/>
<path style="fill:#F0A09C;" d="M493.637,279.561c6.283-20.176,9.546-41.16,9.685-62.29v-4.66
	c0.017-37.341-18.458-72.261-49.343-93.253c-59.809,137.754-236.718,187.652-340.645,205.338c4.842,1.64,8.123,6.17,8.157,11.281
	v76.227h34.712l14.241-71.22c1.336-6.578,7.758-10.821,14.327-9.476c0.859,0.174,1.701,0.443,2.508,0.798
	c28.507,12.514,59.279,19.031,90.416,19.152c86.78,0,121.492-34.712,121.492-34.712l2.76-2.76c1.9,1.319,3.931,2.603,6.075,3.844
	c13.295,7.307,25.548,16.349,36.447,26.902l6.786,6.725l-27.318,47.807c-2.352,4.174-0.876,9.468,3.298,11.819
	c1.284,0.729,2.742,1.111,4.217,1.119h28.481l43.39-60.746c-11.628-18.232-16.011-40.162-12.297-61.466
	C491.685,286.468,492.553,282.98,493.637,279.561z"/>
<rect x="86.78" y="238.644" style="fill:#75462E;" width="17.356" height="17.356"/>
<g>
	<path style="fill:#E68783;" d="M165.211,206.917c-15.863,0.391-31.414-4.452-44.258-13.781c-1.874-1.467-3.688-3.029-5.441-4.703
		c-3.463-3.306-3.593-8.799-0.286-12.271c0.035-0.035,0.061-0.061,0.095-0.095l27.197-27.579
		c14.215-14.397,33.488-22.667,53.717-23.057c4.79-0.061,8.73,3.766,8.799,8.556c0.069,4.79-3.766,8.73-8.556,8.799
		c-15.664,0.312-30.59,6.734-41.594,17.885l-20.463,20.749c23.804,12.939,53.092,10.006,73.858-7.394
		c3.463-3.315,8.956-3.185,12.271,0.278c3.315,3.463,3.185,8.956-0.278,12.271C205.112,200.027,185.465,207.291,165.211,206.917z"/>
	<path style="fill:#E68783;" d="M485.966,238.644c-14.379,0-26.034-11.655-26.034-26.034l0,0v-17.356
		c0-4.79-3.888-8.678-8.678-8.678s-8.678,3.888-8.678,8.678v8.678c0,4.79-3.888,8.678-8.678,8.678s-8.678-3.888-8.678-8.678v-8.678
		c0-14.379,11.655-26.034,26.034-26.034s26.034,11.655,26.034,26.034v17.356c0,4.79,3.888,8.678,8.678,8.678
		s8.678-3.888,8.678-8.678s3.888-8.678,8.678-8.678S512,207.82,512,212.61C512,226.99,500.346,238.644,485.966,238.644
		L485.966,238.644z"/>
	<path style="fill:#E68783;" d="M444.511,353.393c-2.3,0-4.513-0.911-6.135-2.543c-10.353-10.014-22.007-18.588-34.651-25.487
		c-22.754-12.019-37.628-34.998-39.25-60.685c0-4.79,3.888-8.678,8.678-8.678c4.79,0,8.678,3.888,8.678,8.678
		c1.649,19.439,13.173,36.673,30.512,45.62c13.989,7.654,26.876,17.165,38.305,28.281c3.384,3.393,3.384,8.886,0,12.271
		C449.015,352.482,446.811,353.393,444.511,353.393z"/>
</g>
<g>
</g>
<g>
</g>
<g>
</g>
<g>
</g>
<g>
</g>
<g>
</g>
<g>
</g>
<g>
</g>
<g>
</g>
<g>
</g>
<g>
</g>
<g>
</g>
<g>
</g>
<g>
</g>
<g>
</g>
</svg>
