<svg id="Capa_1" enable-background="new 0 0 512 512" height="512" viewBox="0 0 512 512" width="512" xmlns="http://www.w3.org/2000/svg"><g><path d="m160.234 383.856h-46.697v86.276c0 12.895 10.453 23.348 23.349 23.348 12.895 0 23.349-10.453 23.349-23.348 0 12.895 10.453 23.348 23.349 23.348 12.895 0 23.349-10.453 23.349-23.348v-86.276z" fill="#f1d59d"/><path d="m320.347 383.856h-46.697v86.276c0 12.895 10.453 23.348 23.349 23.348 12.895 0 23.349-10.453 23.349-23.348 0 12.895 10.454 23.348 23.349 23.348 12.895 0 23.349-10.453 23.349-23.348v-86.276z" fill="#f1d59d"/><g fill="#f1b986"><path d="m352.766 491.653c-2.792 1.185-5.862 1.834-9.076 1.834-12.898 0-23.344-10.456-23.344-23.354v-86.268h18.162v86.268c.001 9.673 5.883 17.976 14.258 21.52z"/><path d="m306.069 491.653c-2.792 1.185-5.862 1.834-9.076 1.834-12.898 0-23.344-10.456-23.344-23.354v-86.268h18.162v86.268c.001 9.673 5.883 17.976 14.258 21.52z"/><path d="m192.653 491.653c-2.792 1.185-5.862 1.834-9.076 1.834-12.898 0-23.344-10.456-23.344-23.354v-86.268h18.162v86.268c.001 9.673 5.883 17.976 14.258 21.52z"/><path d="m145.956 491.653c-2.792 1.185-5.862 1.834-9.076 1.834-12.898 0-23.344-10.456-23.344-23.354v-86.268h18.162v86.268c.001 9.673 5.883 17.976 14.258 21.52z"/></g><path d="m480.58 252.277c0-26.77-21.701-48.471-48.471-48.471h-1.219c9.154-7.293 15.028-18.529 15.028-31.143 0-21.985-17.822-39.807-39.807-39.807h-331.642c-21.985 0-39.807 17.822-39.807 39.807 0 12.614 5.874 23.85 15.028 31.143h-1.219c-26.77 0-48.471 21.701-48.471 48.471s21.701 48.471 48.471 48.471h1.219c-9.154 7.293-15.028 18.529-15.028 31.143 0 21.985 17.822 39.807 39.807 39.807h7.509c-1.302 3.58-2.013 7.443-2.013 11.473 0 18.542 15.031 33.573 33.573 33.573h253.507c18.542 0 33.573-15.031 33.573-33.573 0-4.03-.712-7.893-2.013-11.473h7.508c21.985 0 39.807-17.822 39.807-39.807 0-12.614-5.874-23.85-15.028-31.143h1.219c26.768 0 48.469-21.701 48.469-48.471z" fill="#f9f6f9"/><path d="m225.898 416.746h-112.362c-9.272 0-17.668-3.76-23.746-9.838-6.068-6.068-9.828-14.464-9.828-23.735 0-4.028.711-7.891 2.019-11.466h-7.51c-21.984 0-39.806-17.822-39.806-39.817 0-12.609 5.872-23.849 15.02-31.142h-1.215c-26.764 0-48.47-21.696-48.47-48.47 0-26.764 21.706-48.47 48.47-48.47h1.216c-9.148-7.294-15.02-18.523-15.02-31.142 0-21.984 17.822-39.806 39.806-39.806h112.362c-21.984 0-39.806 17.822-39.806 39.806 0 12.62 5.872 23.849 15.03 31.142h-1.226c-26.764 0-48.47 21.706-48.47 48.47 0 26.774 21.706 48.47 48.47 48.47h1.226c-9.158 7.294-15.03 18.533-15.03 31.142 0 21.994 17.822 39.817 39.806 39.817h7.51c-1.298 3.575-2.019 7.438-2.019 11.466 0 9.272 3.76 17.668 9.838 23.735 6.078 6.077 14.464 9.838 23.735 9.838z" fill="#dddaec"/><path d="m455.598 153.064c0 32.513-18.275 60.76-45.101 75.038v4.399c0 20.48-8.303 39.023-21.726 52.447-11.703 11.703-27.31 19.522-44.71 21.314-2.534.268-5.12.402-7.726.402s-5.192-.134-7.726-.402c-37.323-3.863-66.426-35.407-66.426-73.761v-4.399c-13.413-7.139-24.683-17.771-32.615-30.679-7.912-12.919-12.486-28.104-12.486-44.36 0-46.914 38.034-84.949 84.949-84.949h68.61c23.468 0 44.699 9.509 60.08 24.879 15.368 15.382 24.877 36.614 24.877 60.071z" fill="#f1d59d"/><path d="m363.152 301.662c-8.313 3.231-17.354 4.998-26.812 4.998-40.957 0-74.153-33.195-74.153-74.153v-4.404c-13.417-7.14-24.692-17.771-32.616-30.679s-12.491-28.099-12.491-44.357c0-46.916 38.038-84.954 84.954-84.954h53.625c-46.916 0-84.954 38.038-84.954 84.954 0 16.258 4.566 31.449 12.491 44.357 7.917 12.908 19.199 23.539 32.609 30.679v4.404c0 31.499 19.644 58.41 47.347 69.155z" fill="#f1b986"/><g fill="#2b4d66"><path d="m312.094 184.153c-4.268 0-7.726-3.459-7.726-7.726v-12.931c0-4.267 3.459-7.726 7.726-7.726s7.726 3.459 7.726 7.726v12.931c0 4.267-3.459 7.726-7.726 7.726z"/><path d="m360.582 184.153c-4.268 0-7.726-3.459-7.726-7.726v-12.931c0-4.267 3.459-7.726 7.726-7.726s7.726 3.459 7.726 7.726v12.931c.001 4.267-3.458 7.726-7.726 7.726z"/></g><path d="m368.207 245.451c0 14.907-10.292 27.444-24.147 30.905v29.906c-2.534.268-5.12.402-7.726.402s-5.192-.134-7.726-.402v-29.906c-13.846-3.462-24.137-15.999-24.137-30.905 0-4.275 3.461-7.726 7.726-7.726s7.726 3.451 7.726 7.726c0 9.045 7.366 16.411 16.411 16.411 9.055 0 16.421-7.366 16.421-16.411 0-4.275 3.451-7.726 7.726-7.726 4.265 0 7.726 3.451 7.726 7.726z" fill="#e2a770"/><g fill="#f1b986"><path d="m160.676 164.773c18.673 18.673 48.947 18.673 67.62 0s18.673-48.947 0-67.62z"/><path d="m512 164.773c-18.673 18.673-48.947 18.673-67.62 0s-18.673-48.947 0-67.62z"/></g><path d="m457.409 60.317h-5.839c0-15.91-12.898-28.808-28.808-28.808-15.91 0-28.808 12.898-28.808 28.808v-12.995c0-15.91-12.898-28.808-28.808-28.808s-28.808 12.898-28.808 28.808c0-15.91-12.898-28.808-28.808-28.808s-28.808 12.898-28.808 28.808v12.995c0-15.91-12.898-28.808-28.808-28.808-15.91 0-28.808 12.898-28.808 28.808h-5.839c-11.685 0-21.158 9.473-21.158 21.158 0 11.685 9.473 21.158 21.158 21.158h5.839c0 15.91 12.898 28.808 28.808 28.808 15.91 0 28.808-12.898 28.808-28.808v12.995c0 15.91 12.898 28.808 28.808 28.808s28.808-12.898 28.808-28.808c0 15.91 12.898 28.808 28.808 28.808s28.808-12.898 28.808-28.808v-12.995c0 15.91 12.898 28.808 28.808 28.808 15.91 0 28.808-12.898 28.808-28.808h5.839c11.685 0 21.158-9.473 21.158-21.158 0-11.685-9.473-21.158-21.158-21.158z" fill="#f9f6f9"/><path d="m478.566 81.48c0 11.685-9.472 21.157-21.157 21.157h-5.839c0 7.953-3.223 15.156-8.433 20.366-5.217 5.217-12.413 8.44-20.373 8.44-15.912 0-28.806-12.901-28.806-28.806v12.993c0 15.912-12.901 28.806-28.813 28.806-15.905 0-28.806-12.894-28.806-28.806 0 15.912-12.901 28.806-28.806 28.806-15.912 0-28.813-12.894-28.813-28.806v-12.993c0 7.953-3.223 15.156-8.433 20.366-5.217 5.217-12.413 8.44-20.373 8.44-15.912 0-28.806-12.901-28.806-28.806h-5.839c-5.846 0-11.133-2.368-14.958-6.199-3.831-3.824-6.199-9.119-6.199-14.958 0-6.885 3.287-13 8.37-16.852 3.549 2.7 7.981 4.305 12.788 4.305h5.839c0 15.905 12.894 28.806 28.806 28.806 7.96 0 15.156-3.223 20.373-8.44 5.21-5.21 8.433-12.413 8.433-20.365v12.993c0 15.912 12.901 28.806 28.813 28.806 15.905 0 28.806-12.894 28.806-28.806 0 15.912 12.901 28.806 28.806 28.806 15.912 0 28.813-12.894 28.813-28.806v-12.994c0 15.905 12.894 28.806 28.806 28.806 7.96 0 15.156-3.223 20.373-8.44 5.21-5.21 8.433-12.413 8.433-20.365h5.839c4.807 0 9.239-1.605 12.788-4.305.763.573 1.492 1.209 2.17 1.887 3.83 3.824 6.198 9.119 6.198 14.964z" fill="#dddaec"/></g></svg>